<?xml version="1.0" encoding="UTF-8"?>
<!DOCTYPE svg PUBLIC "-//W3C//DTD SVG 1.1//EN" "http://www.w3.org/Graphics/SVG/1.1/DTD/svg11.dtd">
<!-- Creator: CorelDRAW 2019 (64-Bit) -->
<svg xmlns="http://www.w3.org/2000/svg" xml:space="preserve" width="240px" height="240px" version="1.1" shape-rendering="geometricPrecision" text-rendering="geometricPrecision" image-rendering="optimizeQuality" fill-rule="evenodd" clip-rule="evenodd"
viewBox="0 0 240 240"
 xmlns:xlink="http://www.w3.org/1999/xlink"
 xmlns:xodm="http://www.corel.com/coreldraw/odm/2003">
 <defs>
   <clipPath id="id0">
    <path d="M119.89 158.16c-2.44,0.44 -13.88,-12.34 -16.53,-15.15 3.76,-17.63 -11.66,-41.71 -15.69,-57.59 -33.53,-12.3 -48.47,-2.32 -60.24,-41.28 -0.02,-0.34 -0.01,-2.14 0.05,-1.79 0.01,0.07 2.72,3.73 3.11,4.57 16.07,18.81 66.63,22.6 89.41,23.21 22.78,-0.61 73.34,-4.4 89.41,-23.21 0.39,-0.84 3.1,-4.5 3.11,-4.57 0.06,-0.35 0.07,1.45 0.05,1.79 -11.77,38.96 -26.71,28.98 -60.24,41.28 -4.03,15.88 -19.45,39.96 -15.69,57.59 -2.65,2.81 -14.09,15.59 -16.53,15.15 -0.04,-0.01 -0.08,-0.32 -0.11,-0.88 -0.03,0.56 -0.07,0.87 -0.11,0.88zm24.21 -25.01l-0.4 13.64c-0.63,4.72 -16.19,15.21 -18.9,20.04 0,2.85 -0.22,30.57 0.18,30.83 0.03,0.02 0.18,0.06 0.2,0.01 2.53,-5.6 50.07,-59.67 57.14,-65.84l0.33 -0.9c-1.51,-3 -23.48,-32.72 -23.7,-32.73l-0.76 0.12c-0.29,4.65 -11.78,27.27 -14.09,34.83zm-48.2 0l0.4 13.64c0.63,4.72 16.19,15.21 18.9,20.04 0,2.85 0.22,30.57 -0.18,30.83 -0.03,0.02 -0.18,0.06 -0.2,0.01 -2.53,-5.6 -50.07,-59.67 -57.14,-65.84l-0.33 -0.9c1.51,-3 23.48,-32.72 23.7,-32.73l0.76 0.12c0.29,4.65 11.78,27.27 14.09,34.83z"/>
   </clipPath>
 </defs>
 <g id="Layer_x0020_1">
  <metadata id="CorelCorpID_0Corel-Layer"/>
  <path fill="#679289" d="M119.89 158.16c-2.44,0.44 -13.88,-12.34 -16.53,-15.15 3.76,-17.63 -11.66,-41.71 -15.69,-57.59 -33.53,-12.3 -48.47,-2.32 -60.24,-41.28 -0.02,-0.34 -0.01,-2.14 0.05,-1.79 0.01,0.07 2.72,3.73 3.11,4.57 16.07,18.81 66.63,22.6 89.41,23.21 22.78,-0.61 73.34,-4.4 89.41,-23.21 0.39,-0.84 3.1,-4.5 3.11,-4.57 0.06,-0.35 0.07,1.45 0.05,1.79 -11.77,38.96 -26.71,28.98 -60.24,41.28 -4.03,15.88 -19.45,39.96 -15.69,57.59 -2.65,2.81 -14.09,15.59 -16.53,15.15 -0.04,-0.01 -0.08,-0.32 -0.11,-0.88 -0.03,0.56 -0.07,0.87 -0.11,0.88zm24.21 -25.01l-0.4 13.64c-0.63,4.72 -16.19,15.21 -18.9,20.04 0,2.85 -0.22,30.57 0.18,30.83 0.03,0.02 0.18,0.06 0.2,0.01 2.53,-5.6 50.07,-59.67 57.14,-65.84l0.33 -0.9c-1.51,-3 -23.48,-32.72 -23.7,-32.73l-0.76 0.12c-0.29,4.65 -11.78,27.27 -14.09,34.83zm-48.2 0l0.4 13.64c0.63,4.72 16.19,15.21 18.9,20.04 0,2.85 0.22,30.57 -0.18,30.83 -0.03,0.02 -0.18,0.06 -0.2,0.01 -2.53,-5.6 -50.07,-59.67 -57.14,-65.84l-0.33 -0.9c1.51,-3 23.48,-32.72 23.7,-32.73l0.76 0.12c0.29,4.65 11.78,27.27 14.09,34.83z"/>
  <g clip-path="url(#id0)">
   <g id="_1446580211424">
    <rect fill="#1D7874" x="120" y="-72.38" width="195.82" height="348.97"/>
   </g>
  </g>
  <path fill="none" d="M119.89 158.16c-2.44,0.44 -13.88,-12.34 -16.53,-15.15 3.76,-17.63 -11.66,-41.71 -15.69,-57.59 -33.53,-12.3 -48.47,-2.32 -60.24,-41.28 -0.02,-0.34 -0.01,-2.14 0.05,-1.79 0.01,0.07 2.72,3.73 3.11,4.57 16.07,18.81 66.63,22.6 89.41,23.21 22.78,-0.61 73.34,-4.4 89.41,-23.21 0.39,-0.84 3.1,-4.5 3.11,-4.57 0.06,-0.35 0.07,1.45 0.05,1.79 -11.77,38.96 -26.71,28.98 -60.24,41.28 -4.03,15.88 -19.45,39.96 -15.69,57.59 -2.65,2.81 -14.09,15.59 -16.53,15.15 -0.04,-0.01 -0.08,-0.32 -0.11,-0.88 -0.03,0.56 -0.07,0.87 -0.11,0.88zm24.21 -25.01l-0.4 13.64c-0.63,4.72 -16.19,15.21 -18.9,20.04 0,2.85 -0.22,30.57 0.18,30.83 0.03,0.02 0.18,0.06 0.2,0.01 2.53,-5.6 50.07,-59.67 57.14,-65.84l0.33 -0.9c-1.51,-3 -23.48,-32.72 -23.7,-32.73l-0.76 0.12c-0.29,4.65 -11.78,27.27 -14.09,34.83zm-48.2 0l0.4 13.64c0.63,4.72 16.19,15.21 18.9,20.04 0,2.85 0.22,30.57 -0.18,30.83 -0.03,0.02 -0.18,0.06 -0.2,0.01 -2.53,-5.6 -50.07,-59.67 -57.14,-65.84l-0.33 -0.9c1.51,-3 23.48,-32.72 23.7,-32.73l0.76 0.12c0.29,4.65 11.78,27.27 14.09,34.83z"/>
 </g>
</svg>
